# xmcd
#
# Track frame offsets:
#	150
#	14947
#	30538
#
# Disc length: 575 seconds
#
# Revision: 0
# Processed by: cddbd v1.5.2PL0 Copyright (c) Steve Scherf et al.
# Submitted via: audiograbber 1.83.01
#
DISCID=20023d03
DTITLE=L-Sound - Du bist der Schatz auf meiner Insel
DYEAR=2008
DGENRE=
TTITLE0=Du bist der Schatz auf meiner Insel
TTITLE1=Wir san die Fans von Austria
TTITLE2=Einer für alle...
EXTD=
EXTT0=
EXTT1=
EXTT2=
PLAYORDER=
